<svg width="24" height="24" viewBox="0 0 24 24" fill="none" xmlns="http://www.w3.org/2000/svg">
<path d="M12 0C5.36869 0 0 5.36869 0 12C0 18.6313 5.36869 24 12 24C18.6313 24 24 18.6313 24 12C24 5.36869 18.6313 0 12 0ZM13.2113 12.7802C14.5868 14.1557 15.9624 15.5312 17.3379 16.917C17.9435 17.5227 17.9025 18.0154 17.225 18.5287C12.3593 22.2036 5.14286 19.1343 4.3935 13.0676C3.77759 8.14029 7.51411 3.8905 12.4517 3.8905C14.2173 3.8905 15.8084 4.42429 17.2352 5.47134C17.923 5.97434 17.9641 6.46707 17.3482 7.08298C15.9726 8.46878 14.5971 9.84431 13.2216 11.2198C12.6364 11.7947 12.6364 12.195 13.2113 12.7802Z" fill="#89DFDB"/>
</svg>
