<svg width="24" height="24" viewBox="0 0 24 24" fill="none" xmlns="http://www.w3.org/2000/svg">
<circle cx="12" cy="12" r="12" fill="#FEF653"/>
<path fill-rule="evenodd" clip-rule="evenodd" d="M14.1219 5.94118C14.2294 5.82353 14.2831 5.70588 14.3368 5.52941C14.4443 5.23529 14.498 5 14.498 4.70588C14.5518 4.17647 14.4443 3.76471 14.1757 3.58824C13.907 3.47059 13.5309 3.64706 13.2623 4.05882V4C13.2623 2.88235 12.7787 2 12.2414 2C11.7041 2 11.2206 2.88235 11.2206 4C11.2206 4.05882 11.2206 4.17647 11.2206 4.23529C10.8982 3.70588 10.4146 3.47059 10.0922 3.64706C9.66241 3.88235 9.66241 4.70588 9.98478 5.47059C10.0385 5.58824 10.146 5.82353 10.2534 5.94118C5.84764 6.70588 3.32237 10.5882 3 17H5.47154C5.74018 11.7059 7.99681 8.70588 12.0265 8.82353C15.7338 8.88235 18.5814 11.5882 18.5277 17H20.9993C21.053 10.6471 18.2053 6.94118 14.1219 5.94118Z" fill="black"/>
<path fill-rule="evenodd" clip-rule="evenodd" d="M9.98478 11.9412C9.66241 11.9412 9.44749 12.2353 9.44749 12.5882V14.2353C9.44749 14.5882 9.66241 14.8824 9.98478 14.8824C10.3072 14.8824 10.5221 14.5882 10.5221 14.2353V12.5882C10.5221 12.2353 10.2534 11.9412 9.98478 11.9412Z" fill="black"/>
<path fill-rule="evenodd" clip-rule="evenodd" d="M14.2831 11.9412C13.9607 11.9412 13.7458 12.2353 13.7458 12.5882V14.2353C13.7458 14.5882 13.9607 14.8824 14.2831 14.8824C14.6055 14.8824 14.8204 14.5882 14.8204 14.2353V12.5882C14.8204 12.2353 14.5518 11.9412 14.2831 11.9412Z" fill="black"/>
</svg>
