<svg id="linkswap" width="24" height="24" viewBox="0 0 24 24" fill="none" xmlns="http://www.w3.org/2000/svg">
    <path d="M12 24C18.6274 24 24 18.6274 24 12C24 5.37259 18.6274 0 12 0C5.37258 0 0 5.37259 0 12C0 18.6274 5.37258 24 12 24Z" fill="#2A5BDB"/>
    <path d="M16.155 5.97626L14.9663 6.39229L15.3939 7.73781L11.8527 5.90692L7.05518 8.54341V12.0995L8.98018 11.4177L8.9669 9.64621L11.8527 8.11421L14.6098 9.45965L13.2329 9.96653L13.6687 11.208L17.4708 9.84933L16.155 5.97626Z" fill="white"/>
    <path d="M7.54356 17.9323L8.73221 17.5146L8.30461 16.1691L11.8442 18L16.6417 15.3651V11.809L14.7184 12.4892L14.7316 14.2606L11.8442 15.7943L9.08717 14.4489L10.464 13.9404L10.0282 12.7005L6.22778 14.0576L7.54356 17.9323Z" fill="white"/>
</svg>
