<svg id="maker" width="25" height="24" viewBox="0 0 25 24" fill="none" xmlns="http://www.w3.org/2000/svg">
    <path d="M12.0017 24C18.6291 24 24.0017 18.6274 24.0017 12C24.0017 5.37258 18.6291 0 12.0017 0C5.37429 0 0.00170898 5.37258 0.00170898 12C0.00170898 18.6274 5.37429 24 12.0017 24Z" fill="url(#paint0_linear)"/>
    <path d="M6.09531 15.6V9.95197L10.3785 13.1756V15.6H11.4717V12.948C11.4715 12.8494 11.4485 12.7523 11.4044 12.6641C11.3603 12.576 11.2964 12.4992 11.2177 12.44L6.02331 8.52917C5.9283 8.4586 5.81559 8.41576 5.69769 8.40541C5.5798 8.39505 5.46134 8.41759 5.35549 8.47052C5.24963 8.52345 5.16053 8.60469 5.09807 8.70522C5.03562 8.80574 5.00226 8.92162 5.00171 9.03997V15.6H6.09531ZM17.9409 15.6V9.95197L13.6577 13.1756V15.6H12.5645V12.948C12.5647 12.8494 12.5878 12.7523 12.6318 12.6641C12.6759 12.576 12.7398 12.4992 12.8185 12.44L18.0129 8.53077C18.1078 8.46028 18.2204 8.41745 18.3381 8.40704C18.4559 8.39662 18.5742 8.41902 18.68 8.47176C18.7858 8.52449 18.875 8.6055 18.9375 8.70579C19.0001 8.80609 19.0337 8.92176 19.0345 9.03997V15.6H17.9409Z" fill="white"/>
    <defs>
        <linearGradient id="paint0_linear" x1="12.0017" y1="0" x2="12.0017" y2="24" gradientUnits="userSpaceOnUse">
            <stop stop-color="#4FA89B"/>
            <stop offset="1" stop-color="#6ACEBB"/>
        </linearGradient>
    </defs>
</svg>
