<svg width="24" height="24" viewBox="0 0 24 24" fill="none" xmlns="http://www.w3.org/2000/svg">
<circle cx="12" cy="12" r="12" fill="url(#paint0_linear)"/>
<path d="M13.1596 13.0773C13.0097 12.8072 12.7586 12.4282 12.4281 12.1538C12.3399 12.2322 12.287 12.4021 12.2694 12.5067C12.2276 12.7685 12.3622 12.8054 12.614 12.8744C12.7602 12.9145 12.9459 12.9653 13.1596 13.0773Z" fill="white"/>
<path fill-rule="evenodd" clip-rule="evenodd" d="M4.47657 9.05581C5.18671 4.78634 8.74658 1.4623 13.1673 1.04437C12.8349 1.015 12.4983 1 12.1582 1C6.41982 1 1.69316 5.27031 1.06974 10.7632C1.02366 11.1692 1 11.5819 1 12C1 12.6593 1.05883 13.305 1.1716 13.9323C1.18846 14.0262 1.20653 14.1196 1.22579 14.2125C1.26988 14.4254 1.32021 14.636 1.37657 14.8442C1.41616 14.9904 1.45872 15.1354 1.50419 15.2791C1.56415 15.4686 1.62916 15.6559 1.69908 15.8409C1.72582 15.9116 1.75327 15.982 1.78144 16.052C3.0819 19.2859 5.89281 21.7672 9.35608 22.6503C10.2515 22.8785 11.1905 23 12.1582 23C12.4863 23 12.8111 22.986 13.132 22.9587C17.9457 22.5484 21.8851 19.1252 23 14.6118C21.4625 17.9379 18.0606 20.25 14.1109 20.25C12.5542 20.25 11.0826 19.8909 9.77675 19.252C9.79539 18.8888 9.80907 18.54 9.82172 18.2174L9.82174 18.2168C9.84843 17.5363 9.87057 16.9717 9.9251 16.6321C10.119 15.5125 10.4759 14.7371 10.639 14.4278C11.0256 14.8661 11.27 15.039 11.4475 15.1646C11.6423 15.3024 11.7567 15.3833 11.8905 15.6955C11.9561 15.8527 12.019 16.1385 12.0812 16.4213C12.1569 16.7653 12.2317 17.1048 12.3091 17.2028C12.4501 17.3814 13.5033 18.0087 13.9351 18C14.0761 17.987 14.2171 17.9565 14.3493 17.9042C14.5564 17.8258 14.7547 17.7343 14.9486 17.6254C15.0015 17.5949 15.0544 17.5644 15.0985 17.5383C15.3717 17.3727 16.0723 16.8543 16.0635 16.4012L16.0635 16.3999C16.0591 16.1293 16.0496 15.5468 15.6096 15.1902C15.57 15.0987 15.5259 14.9854 15.4774 14.8504C15.3673 14.5454 15.2439 14.1446 15.1425 13.7482C15.0676 13.4694 15.0103 13.1863 14.9707 12.8987C14.9505 12.7524 15.0319 12.4649 15.1104 12.188C15.186 11.921 15.2589 11.6638 15.2351 11.5526C15.1866 11.3958 15.1249 11.2433 15.0544 11.0952C14.9787 10.9306 14.8966 10.7436 14.819 10.5671L14.7812 10.481C14.7283 10.359 14.6842 10.2457 14.649 10.1499L15.9577 7.16141L14.6754 8.36812C14.6886 7.86714 14.6622 6.4731 13.5914 6.02876C13.609 6.0941 13.6178 6.58201 13.5738 7.16141C13.3402 5.97648 11.5688 5.33174 10.5112 5.86321C10.5861 5.89371 10.9915 6.1943 11.0973 6.49489C10.7491 6.37726 10.3217 6.25529 9.87222 6.24222C9.32581 6.22479 8.69566 6.28142 8.21534 6.56459C7.79671 6.80854 7.51028 7.2224 7.30758 7.66239C6.78319 8.05011 6.21474 7.82357 6.30728 7.08735C6.07358 7.09171 5.87352 7.17813 5.70607 7.3138C7.22144 5.00381 9.85742 3.475 12.8556 3.475C17.5545 3.475 21.3637 7.23021 21.3637 11.8625C21.3637 14.8783 19.7492 17.5223 17.3257 19.0004C20.5194 17.6601 22.7585 14.5378 22.7585 10.9C22.7585 6.03989 18.762 2.1 13.8319 2.1C10.1821 2.1 7.04392 4.25939 5.66021 7.3529C5.19145 7.77274 4.99697 8.58236 5.0514 8.97801L5.04855 8.97872C5.00434 8.98969 4.7749 9.04664 4.47657 9.05581ZM4.35013 10.3978C4.35729 10.0931 4.37881 9.79189 4.41406 9.49481C4.6033 9.46621 4.7887 9.41657 4.96671 9.3689C5.11856 9.32824 5.26503 9.28902 5.40393 9.26553C5.63967 9.22569 5.87357 9.24414 6.10731 9.26258C6.38476 9.28447 6.662 9.30634 6.94183 9.23068C7.25911 9.14791 7.54994 8.97365 7.77027 8.7297C7.83197 8.66435 7.88925 8.59465 7.93773 8.52495C7.854 8.59029 7.76587 8.65128 7.67333 8.70356C7.40893 8.86039 7.10928 8.96058 6.80082 8.99979C6.58049 9.02593 6.36016 8.99979 6.13983 8.97365C5.93272 8.9388 5.72561 8.93009 5.5185 8.94316C5.47884 8.58594 5.55375 8.22872 5.73442 7.91941C5.81815 7.78001 5.91509 7.65368 6.02526 7.53606C6.02085 7.65803 6.0517 7.78001 6.1178 7.88456C6.37779 8.30713 6.94183 8.32456 7.33843 8.09803C7.52892 7.98846 7.68198 7.83919 7.83346 7.69148C8.06741 7.46332 8.29757 7.23887 8.656 7.17012C9.33967 7.03766 9.86799 7.25738 10.2702 7.42464C10.3839 7.47192 10.4875 7.51501 10.5817 7.54477C9.97358 7.13963 9.19361 6.7432 8.46211 6.92181C8.88955 6.68221 9.40953 6.62993 9.88985 6.62993C11.4176 6.63361 11.9984 7.21076 12.2327 7.44356C12.2761 7.48674 12.3077 7.51807 12.3311 7.5317C12.2254 7.3618 12.1064 7.20062 11.9698 7.0525C11.842 6.74755 11.5555 6.29449 11.1766 6.01569C13.2389 6.0244 13.6751 7.81051 13.2653 8.7689C13.8602 8.50752 13.8822 6.9523 13.8558 6.62993C14.4375 7.17883 14.367 8.40733 14.0938 8.91702L12.9304 10.0018L12.9084 10.0235C12.8952 10.0453 12.8819 10.0758 12.8775 10.1019L12.7762 9.96255L12.6396 9.77522C12.5603 9.49642 12.3664 9.25246 12.1769 9.09563C11.9612 8.91069 11.6554 8.81486 11.3637 8.72347C11.0714 8.63187 10.7934 8.54474 10.6346 8.37683C10.52 8.67742 10.4936 9.06949 10.5552 9.40929C10.5552 9.42671 10.5597 9.4485 10.5641 9.46592C10.3746 9.52255 10.1939 9.6576 10.0397 9.8275C9.66952 10.2326 9.43597 10.8556 9.59461 11.2041C8.86752 11.0908 9.19801 9.65324 9.20242 9.64889C9.19801 9.64889 7.39131 10.6465 7.06522 10.9035C6.62456 11.252 6.21915 11.7835 6.24118 12.3585C6.00763 12.0928 6.17949 11.0473 6.37338 10.7162C5.67273 11.1126 5.44359 12.1146 5.43037 12.4587C5.27554 12.1016 5.34368 11.7259 5.40616 11.3813C5.42371 11.2846 5.44081 11.1903 5.4524 11.0996C4.83751 11.9728 4.69919 12.6274 4.67786 12.7284L4.67684 12.7332C4.66228 12.816 4.65072 12.9002 4.64311 12.985C4.45003 12.2299 4.34746 11.4392 4.34746 10.625C4.34746 10.603 4.34754 10.581 4.34769 10.5591C4.56794 10.4788 4.79262 10.408 5.01431 10.3382L5.08665 10.3154C4.8418 10.3292 4.59324 10.3528 4.35013 10.3978ZM14.53 8.92573L15.2086 8.2505L13.9571 10.812L13.9483 10.8295C13.7897 10.873 13.5738 10.799 13.4107 10.677C13.2565 10.5637 13.1551 10.4025 13.208 10.2501L13.4945 9.9669C13.5165 10.0453 13.5561 10.1194 13.6134 10.1804C13.7236 10.298 13.8955 10.3677 14.1378 10.3111C14.0805 10.3023 14.0277 10.2893 13.9748 10.2675C13.7589 10.1804 13.6707 9.98868 13.6267 9.83186L14.0321 9.42671C14.107 9.5879 14.27 9.72295 14.4815 9.66196C14.3141 9.63582 14.2083 9.45721 14.1422 9.31345L14.4595 8.99543C14.5124 9.06514 14.6005 9.09563 14.6886 9.07821C14.6137 9.06514 14.5653 8.99108 14.53 8.92573ZM12.1769 12.9205C12.0447 12.8116 12.0315 12.6461 12.0579 12.4718C12.0887 12.315 12.146 12.1407 12.2562 12.0231C12.0932 11.9098 11.9037 11.8314 11.7054 11.8009C12.1989 11.6833 12.5294 11.8663 12.904 12.2279C13.1375 12.4544 13.4151 13.0164 13.4724 13.1819C13.5385 13.3779 14.0012 13.2167 14.0012 13.2167C13.9043 13.3387 13.706 13.4912 13.4945 13.4956C13.3643 13.4991 13.338 13.4411 13.2913 13.3384C13.2811 13.3159 13.2699 13.2913 13.2565 13.2647C13.0433 13.1679 12.8204 13.1178 12.6282 13.0746C12.431 13.0303 12.2661 12.9933 12.1769 12.9205ZM14.812 16.2967L14.7724 16.2531C14.7283 15.8567 14.6578 15.6389 14.4463 15.6127C14.4463 15.6127 14.4948 15.4428 14.6931 15.5387C14.8782 15.6241 14.8444 15.9679 14.8175 16.2401L14.8143 16.2729L14.812 16.2967ZM14.9707 16.3577C15.0147 15.9917 14.9178 15.2294 14.5653 15.225C14.3361 15.2207 14.2171 15.2904 14.1643 15.3383L14.1246 15.3862C14.1202 15.3514 14.1202 15.3165 14.129 15.2817C14.1322 14.9549 13.9952 14.6536 13.8576 14.3508C13.8062 14.2377 13.7547 14.1245 13.7104 14.0096C13.9748 14.2971 14.1951 14.6195 14.367 14.9636C14.4639 14.907 14.5873 14.907 14.7239 15.0072C15.1469 15.3165 15.1425 16.0876 14.9707 16.3577ZM14.1863 17.107C13.7941 16.9501 12.948 16.606 12.8996 16.4012C12.8687 16.2444 12.9172 16.0832 13.0274 15.97C13.1287 16.1878 13.305 16.3098 13.5606 16.4535C13.5606 16.4535 13.2301 16.1137 13.2212 15.848C13.2521 15.8393 13.2829 15.8349 13.3138 15.8349C13.4375 15.8388 13.5114 16.021 13.6056 16.2534C13.7227 16.5424 13.8712 16.909 14.1863 17.107ZM12.9921 13.3649C12.7189 13.4694 12.3135 13.4128 12.0976 13.3039C11.8155 13.1601 11.6966 12.8334 11.6833 12.5197C11.7197 12.5803 11.7516 12.6406 11.7826 12.6992C11.8831 12.889 11.9738 13.0602 12.1725 13.1601C12.3469 13.2479 12.595 13.2921 12.8012 13.3287C12.8712 13.3411 12.9363 13.3527 12.9921 13.3649ZM7.11157 15.1395C7.08841 15.3273 7.07498 15.5572 7.06298 15.7628C7.05215 15.9483 7.04248 16.1141 7.02785 16.2112C6.84718 15.9193 6.76786 15.5751 6.7987 15.2353C6.96615 13.3665 8.49965 12.1336 8.57016 12.0857C7.55664 13.41 7.19971 14.4512 7.11157 15.1395Z" fill="white"/>
<path d="M18.8531 11.8625C18.8531 15.0484 17.0513 17.8195 14.3974 19.2393C17.7477 18.4863 20.2479 15.531 20.2479 12C20.2479 8.77288 18.1595 6.02661 15.2424 5.00297C17.4265 6.52121 18.8531 9.02761 18.8531 11.8625Z" fill="white"/>
<path d="M16.3425 10.9C16.5861 11.1401 16.6215 11.725 16.6215 11.725C16.6215 11.725 16.6569 11.1401 16.9005 10.9C17.1441 10.6599 17.7373 10.625 17.7373 10.625C17.7373 10.625 17.1441 10.5901 16.9005 10.35C16.6569 10.1099 16.6215 9.525 16.6215 9.525C16.6215 9.525 16.5861 10.1099 16.3425 10.35C16.099 10.5901 15.5057 10.625 15.5057 10.625C15.5057 10.625 16.099 10.6599 16.3425 10.9Z" fill="white"/>
<path d="M10.8332 17.9813C11.0159 18.1614 11.0424 18.6 11.0424 18.6C11.0424 18.6 11.0689 18.1614 11.2516 17.9813C11.4343 17.8011 11.8793 17.775 11.8793 17.775C11.8793 17.775 11.4343 17.7489 11.2516 17.5688C11.0689 17.3886 11.0424 16.95 11.0424 16.95C11.0424 16.95 11.0159 17.3886 10.8332 17.5688C10.6505 17.7489 10.2055 17.775 10.2055 17.775C10.2055 17.775 10.6505 17.8011 10.8332 17.9813Z" fill="white"/>
<path d="M17.3189 12.9625C17.4407 13.0826 17.4584 13.375 17.4584 13.375C17.4584 13.375 17.476 13.0826 17.5978 12.9625C17.7196 12.8424 18.0163 12.825 18.0163 12.825C18.0163 12.825 17.7196 12.8076 17.5978 12.6875C17.476 12.5674 17.4584 12.275 17.4584 12.275C17.4584 12.275 17.4407 12.5674 17.3189 12.6875C17.1971 12.8076 16.9005 12.825 16.9005 12.825C16.9005 12.825 17.1971 12.8424 17.3189 12.9625Z" fill="white"/>
<defs>
<linearGradient id="paint0_linear" x1="12" y1="0" x2="12" y2="23.9999" gradientUnits="userSpaceOnUse">
<stop/>
<stop offset="0.5" stop-color="#1E4169"/>
<stop offset="1" stop-color="#3A619D"/>
</linearGradient>
</defs>
</svg>
