<svg id="mstable" width="24" height="24" viewBox="0 0 24 24" fill="none" xmlns="http://www.w3.org/2000/svg">
    <circle cx="12" cy="12" r="12" fill="#F7F5F2"/>
    <path
        d="M7.0597 14.5861C6.03395 14.5861 5.0871 14.5861 4.07011 14.5861C4.07011 11.4665 4.07011 8.37173 4.07011 5.24381C4.95559 5.24381 5.86737 5.24381 6.81422 5.24381C6.85806 5.59228 6.90189 5.93245 6.9545 6.36389C7.82244 5.31848 8.93587 4.96172 10.2246 5.0032C11.5222 5.05298 12.5742 5.50931 13.1967 6.71235C13.3107 6.56301 13.3983 6.45515 13.4772 6.34729C14.7836 4.62155 17.8784 4.53858 19.2636 6.18965C19.7107 6.72065 19.9562 7.33462 19.9649 7.99007C20 10.1473 19.9912 12.3044 20 14.4616C20 14.4865 19.9825 14.5114 19.9562 14.5695C19.0181 14.5695 18.0625 14.5695 17.0542 14.5695C17.0455 14.4284 17.0279 14.2791 17.0279 14.138C17.0279 12.545 17.0367 10.9603 17.0192 9.36735C17.0192 8.95251 16.9929 8.53766 16.8964 8.13112C16.7211 7.3761 16.2301 7.03593 15.3885 7.01104C14.5381 6.98615 13.9419 7.32632 13.749 8.03985C13.6088 8.54596 13.5474 9.07696 13.5386 9.59136C13.5123 11.0848 13.5211 12.5782 13.5211 14.0717C13.5211 14.2293 13.5211 14.3952 13.5211 14.5778C12.5129 14.5778 11.566 14.5778 10.5578 14.5778C10.549 14.4118 10.5403 14.2542 10.5315 14.0966C10.5315 12.4621 10.5315 10.8359 10.5227 9.20141C10.5227 8.89443 10.5052 8.59574 10.4614 8.28876C10.3386 7.47567 9.83889 7.05253 9.00601 7.01104C8.02409 6.96126 7.35779 7.34292 7.15614 8.13112C7.06847 8.47129 7.04217 8.84465 7.04217 9.20141C7.0334 10.8193 7.0334 12.4372 7.0334 14.0551C7.0597 14.221 7.0597 14.3787 7.0597 14.5861Z"
        fill="#111111"/>
    <path
        d="M4 19C4 18.245 4 17.5066 4 16.7267C9.33042 16.7267 14.6433 16.7267 19.9913 16.7267C19.9913 17.4817 19.9913 18.2284 19.9913 19C14.6608 19 9.34796 19 4 19Z"
        fill="#111111"/>
</svg>
