<svg width="24" height="24" viewBox="0 0 24 24" fill="none" xmlns="http://www.w3.org/2000/svg">
<path d="M10.4532 18.9386C9.42287 19.1183 8.54408 18.9685 7.71579 18.5692C5.8673 17.6707 4.81679 16.1234 4.31174 14.2166C3.0491 9.55449 5.74608 3.89409 10.1602 1.84756C14.2007 -0.01928 18.9886 1.25855 21.6653 5.08207C24.4128 8.99544 24.7563 13.2083 22.5845 17.4411C20.4229 21.644 16.8067 23.7804 12.0289 24C11.9481 24 11.7966 24 11.7057 24C11.837 23.9701 11.9582 23.9201 12.0289 23.9102C16.029 22.8819 18.5037 20.2763 19.8977 16.5426C20.8876 13.9071 21.13 11.2017 20.0391 8.50627C19.3219 6.73926 18.1805 5.31168 16.3926 4.48309C13.9986 3.37497 11.2714 4.03385 9.36226 6.15026C6.33195 9.51456 6.56427 15.2948 9.86731 18.3995C10.0289 18.5692 10.2006 18.719 10.4532 18.9386Z" fill="#EB522D"/>
<path d="M12.2156 0C10.0862 0.548655 8.22929 1.52626 6.78615 3.13232C3.66774 6.63374 2.44662 10.6339 3.85949 15.2227C4.16224 16.2003 4.70721 17.0682 5.38337 17.8363C8.20911 21.0584 12.8211 20.6693 15.2533 17.0482C17.7662 13.2974 17.0295 7.82082 13.6588 5.19726C13.6386 5.17731 13.6285 5.14738 13.5881 5.07755C14.234 4.90797 14.8597 4.9778 15.4753 5.15736C17.3827 5.70601 18.5735 7.02278 19.3203 8.7685C20.3699 11.2424 20.1075 13.7263 19.1891 16.1504C17.9983 19.2827 15.8992 21.5871 12.5991 22.6046C8.79444 23.7717 4.67693 22.3053 2.29524 18.8638C-0.419493 14.9434 -0.752527 10.7337 1.43742 6.50405C3.60719 2.33428 7.2201 0.209486 11.9633 0C12.044 0 12.1349 0 12.2156 0Z" fill="#EB522D"/>
</svg>
