<svg id="saddle" width="25" height="24" viewBox="0 0 25 24" fill="none" xmlns="http://www.w3.org/2000/svg">
    <g clip-path="url(#clip0)">
        <path d="M12.0017 24C18.6291 24 24.0017 18.6274 24.0017 12C24.0017 5.37258 18.6291 0 12.0017 0C5.37429 0 0.00170898 5.37258 0.00170898 12C0.00170898 18.6274 5.37429 24 12.0017 24Z" fill="#FFFFE9"/>
        <path d="M16.9961 7.15575C16.9961 7.15575 17.6681 5.48742 17.5811 5.1051C17.5001 4.73438 17.4943 4.61853 16.886 4.1667C16.6427 4.27676 16.2083 4.43317 15.8549 4.36365C15.3336 4.26517 15.0671 4.0856 14.818 3.86548C14.5689 3.64536 14.4357 3.32097 14.4126 3.12981C14.4068 3.08347 14.4589 3.04871 14.4994 3.07767C14.7138 3.23408 14.8876 3.51792 15.4958 3.72066C15.8433 3.83652 16.1272 3.80176 16.301 3.74383C15.5305 3.21091 14.4126 2.48102 13.7464 2.2609C12.8948 1.98285 12.5125 2.52737 12.5125 2.52737L11.7131 3.79018C11.7131 3.79018 13.057 3.98713 14.4299 4.75756C15.797 5.52217 16.9961 7.15575 16.9961 7.15575Z" fill="#3800D6"/>
        <path d="M19.1394 9.04999C18.9714 9.07317 18.7165 9.07317 18.3748 8.98625C17.0367 8.60973 16.2141 6.40274 13.897 5.01247C10.1955 3.10088 8.20858 4.82709 8.20858 4.82709C7.9537 5.0009 8.21439 5.11097 8.21439 5.11097L9.43085 5.72498L10.0044 6.02618C10.0044 6.02618 9.63941 6.49538 8.89791 6.13625C8.65464 6.03199 8.16807 6.00305 7.79151 6.339C7.38024 6.56493 7.55981 7.21951 7.25861 7.63658C6.96317 8.05365 6.37229 7.98415 6.30859 8.58655C6.25647 9.20061 6.74304 9.31644 6.75461 9.77407C6.76623 10.2317 6.59823 10.4924 6.55186 10.614C6.53448 10.6662 6.52291 10.7298 6.52291 10.7936C6.52872 10.8805 6.56928 10.9674 6.62717 11.0369C6.67354 11.089 6.7141 11.1238 6.76042 11.1527C6.95736 11.286 7.12536 11.4597 7.23543 11.6683C7.2528 11.703 7.27018 11.7378 7.29336 11.7726C7.31074 11.8015 7.32811 11.8363 7.3513 11.8768C7.47874 12.1027 7.53087 12.3692 7.4845 12.6299C7.47293 12.6994 7.47874 12.7805 7.50187 12.8558C7.54824 12.9948 7.66987 13.0991 7.81469 13.1396C8.02901 13.1918 8.21439 13.3192 8.34183 13.4988C8.35339 13.5103 8.3592 13.5278 8.37077 13.5393C8.54458 13.7826 8.50983 14.1649 8.57933 14.443C8.64883 14.721 8.88053 14.8079 9.21653 14.9991C9.55248 15.1902 9.62203 15.4914 9.48298 15.6363C9.34397 15.7811 8.52139 15.4278 8.1912 15.8216C7.94794 16.0476 8.05219 16.1924 7.93056 16.621C7.80888 17.0555 7.43818 16.7369 7.24123 17.0381C7.04424 17.3394 7.0153 17.6637 7.11379 18.3067C7.21224 18.9497 7.83787 19.836 7.83787 19.836C7.83787 19.836 7.50187 18.6659 8.23176 17.6637C8.85159 16.9338 9.32659 16.8354 10.0275 16.8238C10.7342 16.8064 11.7769 17.4436 11.9912 18.6948C12.1013 19.5232 11.6495 20.004 11.6147 20.0503C11.5336 20.143 10.8674 20.8787 9.98117 20.3863C9.73786 20.2183 9.52354 20.0445 9.37872 19.7086C9.27447 19.4015 9.24547 18.9903 9.41928 18.7122C9.5641 18.4805 9.79579 18.411 9.8653 18.4052C9.96955 18.3936 10.1955 18.3994 10.3403 18.5094C10.4851 18.6195 10.6415 18.7817 10.6126 19.0598C10.5836 19.3378 10.294 19.4189 10.1839 19.3958C10.0912 19.3784 10.1549 19.39 10.1781 19.3958C9.99855 19.3842 9.91743 19.2451 9.88267 19.1466C9.87691 19.1235 9.84211 19.1293 9.83635 19.1525C9.78423 19.5348 10.0739 19.7781 10.2476 19.8186C10.4388 19.8592 10.7226 19.8534 10.9543 19.6159C11.1571 19.4131 11.2671 19.2393 11.2671 18.7933C11.2671 18.4284 11.1165 18.1735 10.8674 17.9534C10.5431 17.6522 10.1144 17.5363 9.81898 17.5595C9.54091 17.5826 9.05434 17.6985 8.73571 18.2024C8.44032 18.6659 8.31288 19.3031 8.56195 20.0156L8.57352 20.0387C9.14122 21.3653 10.4677 21.7013 11.383 21.7013C11.5684 21.7013 11.7363 21.6896 11.8754 21.6665C11.9043 21.6607 12.5589 21.5622 13.1961 21.1683C13.9839 20.647 14.4531 19.8939 14.4531 18.7296C14.4531 17.1829 13.7754 16.1518 12.3852 14.5415C12.1187 14.2113 11.0354 12.8732 10.8385 12.6125C9.87111 11.3613 8.78784 9.88994 9.32659 8.77193C9.34397 8.73717 9.36135 8.70823 9.37872 8.67348C10.1839 7.19633 12.4547 7.56127 11.9565 7.65396C11.0934 7.79877 10.5778 8.18109 10.4214 8.34905C10.265 8.51705 10.1781 8.66186 10.0739 8.93412C9.89429 9.38018 10.0391 10.0695 10.4214 10.672C12.0839 13.0296 14.54 15.9665 14.8412 16.6732C15.2293 17.5652 15.2873 18.272 15.2815 18.7064C15.2757 19.1409 15.1714 19.836 15.1714 19.836C15.1714 19.836 15.7449 19.3784 16.0172 18.8223C16.2894 18.2662 16.3357 17.9997 16.2547 17.7912C16.1677 17.5826 15.9534 17.5769 15.8665 17.2351C15.7797 16.8933 16.0229 16.5921 15.7681 16.0476C15.658 15.8101 15.073 15.4625 14.7717 15.0802C14.4705 14.6979 13.9202 14.0143 13.5089 13.464C12.7675 12.4793 12.5242 12.1433 12.0955 11.5872C12.5589 11.7262 13.1382 11.9174 14.4705 11.2975C15.7044 11.929 16.5501 11.8942 16.8455 11.8768C17.1409 11.8594 17.419 11.7262 17.6333 11.5582C17.7723 11.4482 17.8766 11.228 17.9403 11.0832C17.9635 11.0311 17.9114 10.9847 17.8592 11.0021C16.8223 11.4308 15.8665 11.0832 14.6906 10.4286L14.4821 10.3128L14.2736 10.4228C13.0397 11.0832 11.7421 10.5677 11.6263 10.5213C11.58 10.4982 11.2266 10.3128 11.0702 10C10.9138 9.68719 10.879 9.357 10.9949 9.07893C11.0876 8.85305 11.3077 8.70242 11.6668 8.62711C11.9623 8.59236 12.3446 8.70242 12.6516 8.82405C12.7211 8.85305 12.7849 8.78354 12.7559 8.7198C12.7211 8.62711 12.6979 8.52866 12.6979 8.42436C12.6979 8.2506 12.7559 8.09417 12.8485 7.96673L13.2598 8.15791C13.1903 8.22741 13.1497 8.33167 13.1614 8.44754C13.1787 8.59817 13.3062 8.72561 13.4568 8.74298C13.6595 8.77193 13.8275 8.6213 13.8449 8.43017L14.233 8.60973C14.1635 8.89361 13.9434 9.11369 13.6595 9.18324C13.6016 9.19481 13.5958 9.27012 13.6537 9.28749C14.1809 9.53657 15.7217 10.2549 15.7217 10.2549C15.7217 10.2549 16.6138 10.753 17.3958 10.6546C18.1489 10.614 18.4849 10.0174 18.0388 10.0753C17.5928 10.1332 16.5385 9.67557 16.5385 9.67557L15.8318 9.34543L16.1272 8.8878C16.1272 8.8878 17.1351 9.46125 18.0272 9.6582C18.6181 9.78564 19.0178 9.44969 19.2205 9.20637C19.2842 9.14268 19.2263 9.03842 19.1394 9.04999ZM10.8906 7.03989C10.5141 7.08626 9.94061 7.26002 9.61623 7.41645C9.49459 7.47439 9.39029 7.53228 9.30341 7.58445C9.01959 7.76978 8.76471 8.04785 8.56195 8.43017C7.76837 9.97101 9.22234 11.8594 10.3924 13.3771C10.5894 13.632 10.7689 13.8695 10.9312 14.0897C11.1803 14.4314 11.4525 14.7674 11.719 15.086C12.4025 15.9259 13.1556 16.818 13.4799 17.8086C13.5669 18.1561 13.5784 18.4805 13.5379 18.7412C13.3989 19.5522 12.6922 19.8302 12.6922 19.8302C12.7964 19.4942 12.8544 19.0598 12.7906 18.5616V18.55C12.5763 17.3857 11.6321 16.3546 11.6321 16.3546C11.4061 16.0534 11.1629 15.7406 10.9659 15.4857C8.97903 12.9311 8.78208 12.6414 8.31288 11.7899L8.30707 11.7784C8.29551 11.7552 8.27813 11.7262 8.26071 11.6972C7.98845 11.2396 7.25861 10.0174 7.57719 8.73717C7.6525 8.44173 7.78575 8.17529 7.97688 7.94359C9.14122 6.43169 11.3714 6.94725 10.8906 7.03989Z" fill="#3800D6"/>
    </g>
    <defs>
        <clipPath id="clip0">
            <rect width="24" height="24" fill="white" transform="translate(0.00170898)"/>
        </clipPath>
    </defs>
</svg>
