<svg id="shell" width="24" height="24" viewBox="0 0 24 24" fill="none" xmlns="http://www.w3.org/2000/svg">
    <path d="M14.1161 13.7896C15.2469 16.0331 16.0025 18.3689 14.8935 20.8075C13.1104 24.7148 7.76647 25.105 4.99394 21.5933C2.42799 18.3418 2.33014 13.4915 4.74931 9.38369C5.14072 8.72253 5.47778 8.02887 5.89638 7.38397C6.25517 6.82037 6.89122 6.78243 7.0815 7.36771C8.1144 10.5217 10.2781 13.0525 11.7133 15.9735C12.8712 18.3418 12.1645 20.504 10.202 20.7425C8.54931 20.9484 7.21197 19.8862 6.49437 17.7619C6.16276 16.7864 5.98336 15.7839 6.07577 14.7434C6.11383 14.2719 6.34215 13.9955 6.83686 14.0551C7.29351 14.1093 7.44029 14.4182 7.42942 14.8572C7.39137 16.212 7.66862 17.5018 8.4732 18.6181C8.90811 19.2305 9.51697 19.6315 10.2944 19.2955C11.0989 18.9433 10.9902 18.2117 10.8163 17.5614C10.24 15.3991 8.69609 13.7625 7.66862 11.844C7.29895 11.1612 6.9619 10.4621 6.6031 9.77387C6.53786 9.64381 6.44545 9.52459 6.3639 9.39994C6.28236 9.51375 6.1845 9.62755 6.11927 9.7522C4.54273 12.6298 3.74359 15.6104 4.96676 18.8457C6.07034 21.7559 8.91354 23.3167 11.3871 22.3683C13.866 21.4145 14.6924 18.7861 13.4746 15.6917C12.4961 13.2043 10.7075 11.172 9.56047 8.77673C8.06004 5.65522 8.71783 2.44159 11.3327 0.290135C11.8002 -0.0946339 12.2025 -0.12173 12.6103 0.360586C15.8068 4.09447 18.8457 7.953 20.3842 12.6949C21.6019 16.445 21.0964 19.935 18.1227 22.8127C17.8291 23.0945 17.503 23.295 17.0844 23.0945C16.7473 22.9319 16.6821 22.6067 16.7636 22.2924C17.927 17.6969 16.3233 13.7354 13.9639 9.93645C13.2789 8.83634 12.632 7.70371 11.9851 6.58192C11.7567 6.18631 11.7296 5.75277 12.2025 5.51974C12.632 5.30839 12.9527 5.5089 13.1919 5.92619C14.9098 8.9935 17.0082 11.8549 17.9868 15.2961C18.4108 16.781 18.563 18.2876 18.5087 19.8212C18.5032 19.9079 18.5304 19.9946 18.5413 20.0813C18.5902 20.0109 18.6555 19.9513 18.6935 19.8754C20.4331 16.4342 19.4655 13.226 17.8183 10.0936C16.2635 7.12385 14.301 4.41963 12.1101 1.87256C11.8818 1.60702 11.7622 1.72082 11.6045 1.91592C9.6257 4.3275 9.63114 6.43018 11.6371 9.74136C12.4526 11.0962 13.2844 12.4402 14.1161 13.7896Z" fill="url(#paint0_radial)"/>
    <defs>
        <radialGradient id="paint0_radial" cx="0" cy="0" r="1" gradientUnits="userSpaceOnUse" gradientTransform="translate(8.5 3) rotate(75.4655) scale(27.8927 20.9195)">
            <stop stop-color="#E9ACEF"/>
            <stop offset="0.708333" stop-color="#3FBBFF"/>
            <stop offset="1" stop-color="#59FFE8"/>
        </radialGradient>
    </defs>
</svg>
