<svg id="smoothy" width="25" height="24" viewBox="0 0 25 24" fill="none" xmlns="http://www.w3.org/2000/svg">
    <path d="M5.69873 9.6001H18.0624L17.0927 24H6.91085L5.69873 9.6001Z" fill="#F2B3C0"/>
    <path fill-rule="evenodd" clip-rule="evenodd" d="M11.7593 24V9.6001H18.0623L17.0926 24H11.7593Z" fill="#F3A1AD"/>
    <path fill-rule="evenodd" clip-rule="evenodd" d="M6.42595 18.24L6.00171 13.2001H17.8199L17.4805 18.24H6.42595Z" fill="#3B72C4"/>
    <path d="M7.29455 0.0487443C6.91998 -0.0948021 6.49878 0.0894461 6.35378 0.460274C6.20878 0.831102 6.39489 1.24809 6.76947 1.39163L10.0623 2.65352V7.20014H4.48656C4.21878 7.20014 4.00171 7.41504 4.00171 7.68013V9.12012C4.00171 9.38522 4.21878 9.60012 4.48656 9.60012H19.5169C19.7846 9.60012 20.0017 9.38522 20.0017 9.12012V7.68013C20.0017 7.41504 19.7846 7.20014 19.5169 7.20014H11.5169V2.16018C11.5169 1.86283 11.3322 1.59607 11.0521 1.48873L7.29455 0.0487443Z" fill="#3B72C4"/>
    <path fill-rule="evenodd" clip-rule="evenodd" d="M17.4805 18.24L17.8199 13.2001H11.7593V18.24H17.4805Z" fill="#225596"/>
    <path d="M11.7593 7.20013H18.8017C19.4644 7.20013 20.0017 7.73739 20.0017 8.40012C20.0017 9.06286 19.4644 9.60012 18.8017 9.60012H11.7593V7.20013Z" fill="#225596"/>
    <ellipse cx="11.7595" cy="15.8401" rx="1.69697" ry="1.67999" fill="#CF3E2E"/>
</svg>
