<svg id="snowswap" width="25" height="24" viewBox="0 0 25 24" fill="none" xmlns="http://www.w3.org/2000/svg">
    <path fill-rule="evenodd" clip-rule="evenodd"
          d="M12.0017 24C18.6291 24 24.0017 18.6274 24.0017 12C24.0017 5.37259 18.6291 0 12.0017 0C5.3743 0 0.00170898 5.37259 0.00170898 12C0.00170898 18.6274 5.3743 24 12.0017 24Z"
          fill="url(#paint0_linear)"/>
    <path d="M19.2096 15.5122L17.7948 14.6953L18.9105 14.3963C19.193 14.3207 19.3606 14.0304 19.2849 13.7479C19.2092 13.4656 18.9189 13.2979 18.6364 13.3736L17.3842 13.7092C16.8167 13.8612 16.2121 13.7816 15.7034 13.4879C15.1996 13.1971 14.8893 12.6596 14.8893 12.0779V11.9222C14.8893 11.3405 15.1996 10.803 15.7034 10.5122C16.2121 10.2185 16.8178 10.1391 17.3851 10.2916C18.7848 10.6678 18.6894 10.6446 18.7738 10.6446C19.0075 10.6446 19.2215 10.4886 19.2849 10.2521C19.3605 9.96967 19.193 9.67937 18.9105 9.60372L17.7948 9.30473L19.2096 8.48787C19.4628 8.34171 19.5495 8.0179 19.4034 7.7647C19.2572 7.5115 18.9334 7.42481 18.6802 7.57092L17.2653 8.38783L17.5643 7.27198C17.6399 6.98955 17.4723 6.69924 17.1899 6.62359C16.9076 6.54785 16.6172 6.71551 16.5415 6.9979L16.206 8.25022C16.0539 8.81767 15.6827 9.30151 15.1739 9.59523C14.6702 9.88601 14.0496 9.88601 13.5459 9.59523L13.4109 9.51732C12.9072 9.22649 12.5969 8.68903 12.5969 8.10742C12.5969 7.51995 12.8303 6.95657 13.2457 6.54118L14.1624 5.62443C14.3692 5.41769 14.3692 5.08246 14.1624 4.87572C13.9557 4.66897 13.6205 4.66897 13.4138 4.87572L12.5969 5.69254V4.05889C12.5969 3.76652 12.3599 3.52948 12.0675 3.52948C11.7751 3.52948 11.5381 3.76652 11.5381 4.05889V5.69254L10.7212 4.87572C10.5145 4.66897 10.1793 4.66897 9.97259 4.87572C9.7658 5.08246 9.7658 5.41769 9.97259 5.62443L10.8893 6.54118C11.3047 6.95657 11.5381 7.51995 11.5381 8.10742C11.5381 8.68903 11.2278 9.22649 10.7241 9.51732L10.5891 9.59523C10.0854 9.88606 9.46484 9.88606 8.96113 9.59523C8.45238 9.30151 8.08115 8.81772 7.92908 8.25027L7.59352 6.99795C7.51787 6.71556 7.22761 6.5479 6.94513 6.62364C6.6627 6.69929 6.49508 6.98959 6.57078 7.27203L6.86977 8.38783L5.45483 7.57102C5.20168 7.42481 4.87782 7.51155 4.73165 7.76479C4.58547 8.01799 4.67223 8.34175 4.92543 8.48796L6.34028 9.30478L5.22452 9.60377C4.94209 9.67947 4.77447 9.96972 4.85017 10.2522C4.91358 10.4887 5.12747 10.6447 5.36123 10.6447C5.44575 10.6447 5.35283 10.6672 6.74996 10.2916C7.31732 10.1391 7.92294 10.2186 8.43169 10.5123C8.93545 10.8031 9.24577 11.3406 9.24577 11.9222V12.078C9.24577 12.6597 8.93545 13.1971 8.43169 13.488C7.92294 13.7817 7.31833 13.8613 6.75088 13.7093L5.49856 13.3737C5.21632 13.2979 4.92587 13.4656 4.85017 13.748C4.7745 14.0305 4.94209 14.3207 5.22452 14.3964L6.34028 14.6954L4.92543 15.5122C4.45815 15.782 4.64996 16.5002 5.19063 16.5002C5.37947 16.5002 5.31049 16.5126 6.86977 15.6124L6.57078 16.7282C6.49508 17.0106 6.6627 17.3009 6.94513 17.3766C7.22814 17.4525 7.51801 17.2839 7.59352 17.0022L7.92908 15.7499C8.08115 15.1825 8.45238 14.6987 8.96113 14.4049C9.46484 14.1141 10.0854 14.1141 10.5891 14.4049L10.7241 14.4828C11.2278 14.7737 11.5381 15.3111 11.5381 15.8927C11.5381 16.4802 11.3047 17.0436 10.8893 17.4589L9.97259 18.3757C9.76585 18.5825 9.76585 18.9176 9.97259 19.1244C10.1793 19.3312 10.5146 19.3312 10.7213 19.1244L11.5381 18.3076V19.9412C11.5381 20.2336 11.7751 20.4706 12.0675 20.4706C12.3599 20.4706 12.5969 20.2336 12.5969 19.9412V18.3076L13.4138 19.1244C13.5171 19.2278 13.6526 19.2795 13.7881 19.2795C14.2555 19.2795 14.497 18.7102 14.1624 18.3757L13.2457 17.459C12.8303 17.0436 12.5969 16.4802 12.5969 15.8927C12.5969 15.3111 12.9072 14.7737 13.4109 14.4828L13.5459 14.4049C14.0496 14.1141 14.6702 14.1141 15.1739 14.4049C15.6827 14.6986 16.0539 15.1824 16.206 15.7498L16.5415 17.0022C16.6049 17.2387 16.8188 17.3947 17.0525 17.3947C17.4006 17.3947 17.6543 17.0643 17.5643 16.7281L17.2653 15.6123L18.6802 16.4292C18.9317 16.5744 19.2563 16.4902 19.4034 16.2354C19.5495 15.9822 19.4628 15.6583 19.2096 15.5122ZM13.8304 12.0001C13.8304 12.6299 13.4944 13.212 12.949 13.5269C12.4035 13.8418 11.7315 13.8418 11.186 13.5269C10.6406 13.212 10.3046 12.6299 10.3046 12.0001C10.3046 11.3703 10.6406 10.7882 11.186 10.4733C11.7315 10.1583 12.4035 10.1583 12.949 10.4732C13.4944 10.7882 13.8304 11.3702 13.8304 12.0001Z"
          fill="white"/>
    <defs>
        <linearGradient id="paint0_linear" x1="21.4665" y1="-21" x2="-4.49497" y2="-18.236"
                        gradientUnits="userSpaceOnUse">
            <stop stop-color="#1ADBC5"/>
            <stop offset="1" stop-color="#04D3DD"/>
        </linearGradient>
    </defs>
</svg>
