<svg width="24" height="24" viewBox="0 0 24 24" fill="none" xmlns="http://www.w3.org/2000/svg">
<circle cx="12" cy="12" r="12" fill="#212426"/>
<path d="M15.3332 16.3464C15.3612 16.353 15.3893 16.3662 15.4733 16.399C15.3752 16.5634 15.2772 16.7212 15.1651 16.9118C15.1161 16.7935 15.0951 16.7343 15.0671 16.6488C13.6805 18.0359 12.0837 19.0483 10.0178 19.3376C9.87769 19.5611 9.71661 19.8175 9.54853 20.0804C9.57655 20.1199 9.60456 20.1593 9.63957 20.2053C9.56254 20.4617 9.24739 20.6326 9.33143 20.9613C9.12834 21.1783 9.07931 21.4412 9.11433 21.6976C9.00228 21.8028 8.91124 21.8882 8.80619 21.9934C8.54006 21.8488 8.25993 21.7896 7.99381 22C7.74169 21.8422 7.72768 21.6056 7.64365 21.3886C7.55961 21.1914 7.37752 21.0336 7.23045 20.8496C7.23045 20.843 7.23045 20.8233 7.23045 20.8101C7.23045 20.5077 7.16042 20.1856 7.25146 19.9161C7.3355 19.6663 7.38453 19.3967 7.48257 19.1601C7.62964 18.7919 7.58762 18.5487 7.24446 18.312C7.08339 18.2069 6.99935 17.9965 6.9013 17.819C6.67019 17.3983 6.41808 16.9841 6.24299 16.5437C6.00488 15.952 5.90684 15.6628 6.10993 15.0317C6.15895 14.8805 6.17996 14.7095 6.22198 14.5452C6.32703 14.0784 6.58615 13.7103 6.94332 13.3948C7.35651 13.3948 7.42654 13.4276 7.78371 13.7497C7.78371 13.8549 7.78371 13.9601 7.78371 14.0587C8.09185 14.302 8.65211 14.1902 8.75016 14.7227C8.70114 14.841 8.64511 14.9856 8.56808 15.1763C8.69413 15.1631 8.82019 15.15 9.00228 15.1303C8.99527 15.1237 9.0443 15.1697 9.10032 15.2157C8.90423 15.4655 9.07231 15.7416 8.98827 15.998C9.51352 16.1295 9.93371 15.9126 10.3399 15.7548C10.7951 15.5707 11.2433 15.3604 11.6635 15.0842C12.1818 14.7424 12.4619 14.2428 12.77 13.7497C12.8191 13.6709 12.777 13.5394 12.777 13.4342C12.637 13.3093 12.5249 13.191 12.2938 13.1449C12.0067 13.0858 11.7406 12.882 11.4814 12.7176C11.1943 12.5336 10.8651 12.4284 10.585 12.218C10.0318 11.8039 9.49951 11.3831 9.19837 10.752C8.90423 10.1407 8.71514 9.49643 8.45602 8.87191C8.51205 8.48405 8.35798 8.08961 8.54707 7.6886C8.71514 7.32704 8.92524 7.05093 9.29641 6.88001C9.34544 6.86029 9.38045 6.8077 9.41547 6.76826C9.84267 6.29493 10.3959 6.01883 11.0052 5.82819C11.2153 5.76245 11.3974 5.61782 11.5935 5.51921C11.8526 5.38116 12.0977 5.24968 12.3919 5.17737C12.63 5.11821 12.8261 4.93414 12.9451 4.67775C13.1972 4.15842 13.4704 3.63908 13.7855 3.15261C14.0936 2.67271 14.4578 2.23226 15.1721 2.00875C15.3472 1.98903 15.6484 1.98245 15.9285 2.21911C15.8725 2.25856 15.8305 2.31772 15.7744 2.32429C15.5503 2.37031 15.3262 2.40976 15.2282 2.65299C15.2282 2.65299 15.2212 2.64642 15.2142 2.63984C15.1862 2.66614 15.1511 2.69243 15.1231 2.71216C15.1371 2.7253 15.1441 2.73188 15.1581 2.74502C15.1862 2.71873 15.2072 2.68586 15.2282 2.65299C15.2982 2.64642 15.3682 2.64642 15.4453 2.64642C15.4103 2.69901 15.3752 2.75817 15.3192 2.85678C15.6694 2.81734 15.9355 2.52809 16.3207 2.67929C16.3277 2.81076 16.3347 2.98169 16.3417 3.13946C16.4187 3.16575 16.4818 3.18548 16.5518 3.21177C16.4397 3.73768 15.9145 4.1124 16.0125 4.71062C15.7674 4.93414 15.5153 5.15765 15.5573 5.53236C15.8445 5.89393 16.1666 6.23577 16.4187 6.61706C16.6498 6.97862 16.8109 7.37963 17 7.76092C16.909 8.03045 16.8179 8.2934 16.7199 8.57608C16.7059 8.56293 16.6708 8.53664 16.6288 8.51034C16.3627 8.71413 16.0896 8.9245 15.7884 9.15458C15.6904 9.0757 15.5993 9.00338 15.4873 8.91792C15.3963 8.91792 15.2912 8.91792 15.1862 8.91792C14.857 8.72071 14.836 8.38544 14.7309 8.04359C14.5138 8.07646 14.2967 8.10276 14.0446 8.1422C14.0306 8.10933 13.9956 8.03702 13.9396 7.93841C13.4073 8.19479 12.8471 8.41173 12.3498 8.72071C11.9717 8.95737 11.5375 9.18088 11.3694 9.64763C11.5865 9.48985 11.7966 9.32551 12.0207 9.17431C12.0697 9.14144 12.1537 9.14801 12.2238 9.13486C11.9717 9.40439 11.7125 9.67392 11.4324 9.97632C11.7195 10.1538 11.9997 10.3708 12.3148 10.5088C12.9871 10.8178 13.6174 11.1925 14.1077 11.7381C14.5489 12.2377 14.9761 12.7439 15.2422 13.3553C15.3612 13.6248 15.4453 13.9075 15.5573 14.1836C15.5993 14.2888 15.6694 14.3874 15.7674 14.5649C15.7674 14.7884 15.7674 15.104 15.7674 15.4458C15.6134 15.7088 15.3963 15.9914 15.3332 16.3464C15.3332 16.3464 15.3262 16.3399 15.3192 16.3333C15.2912 16.3596 15.2562 16.3859 15.2282 16.4056C15.2422 16.4188 15.2492 16.4253 15.2632 16.4385C15.2842 16.4056 15.3122 16.3793 15.3332 16.3464ZM13.6384 7.32046C13.1692 7.54398 12.721 7.70175 12.3288 7.95813C11.9296 8.21452 11.4184 8.36572 11.2363 8.87191C11.6075 8.63525 11.9787 8.42488 12.3849 8.25396C12.8821 8.04359 13.3513 7.76749 13.8345 7.52426C13.9256 7.47824 14.0166 7.42565 14.1987 7.32046C13.9116 7.32046 13.7505 7.32046 13.6384 7.32046ZM13.8555 16.9249C13.0502 17.372 12.3568 17.7533 11.6635 18.1345C11.6565 18.1411 11.6635 18.1674 11.6635 18.2332C12.1678 18.3318 12.5179 17.9636 12.9241 17.8124C13.2953 17.6744 13.5894 17.3917 13.8555 16.9249ZM12.8751 6.06485C12.714 6.06485 12.5809 6.01226 12.4129 6.09772C11.8176 6.41984 11.1943 6.70252 10.592 7.00492C10.529 7.03779 10.487 7.10353 10.4379 7.15612C10.4029 7.19556 10.3749 7.235 10.3469 7.27445C11.1943 6.86029 12.0977 6.59733 12.8751 6.06485ZM10.459 16.8658C11.4534 16.6883 12.1537 16.3136 12.5179 15.8074C12.4409 15.8074 12.3358 15.7745 12.3008 15.814C11.7826 16.2544 11.1103 16.4385 10.459 16.8658ZM10.9072 7.47166C11.5445 7.16926 12.1888 6.86686 12.8261 6.55789C12.8471 6.55132 12.8471 6.51187 12.8681 6.47243C12.735 6.47243 12.609 6.47243 12.5179 6.47243C11.9717 6.82742 11.3344 7.00492 10.9072 7.47166ZM11.5935 16.8789C11.7265 16.8263 11.8666 16.7737 11.9927 16.708C12.1117 16.6423 12.2238 16.5634 12.3428 16.4845C12.5319 16.3596 12.5599 16.3267 12.609 16.2018C12.2168 16.3793 11.8666 16.5634 11.5935 16.8789Z" fill="white"/>
</svg>
